HIERARCHY
ROOT joint_Root
{
	OFFSET 0.0 0.0 0.0
	CHANNELS 6 Xposition Yposition Zposition Zrotation Xrotation Yrotation 
	JOINT Hips
	{
		OFFSET -0.726466 93.3139 -2.00062
		CHANNELS 6 Xposition Yposition Zposition Zrotation Xrotation Yrotation 
		JOINT Spine
		{
			OFFSET 15.7357 0.0 0.0
			CHANNELS 6 Xposition Yposition Zposition Zrotation Xrotation Yrotation 
			JOINT Chest
			{
				OFFSET 8.98455 -0.406207 0.0
				CHANNELS 6 Xposition Yposition Zposition Zrotation Xrotation Yrotation 
				JOINT Neck
				{
					OFFSET 16.3773 0.0 0.0
					CHANNELS 6 Xposition Yposition Zposition Zrotation Xrotation Yrotation 
					JOINT Head
					{
						OFFSET 6.45672 0.0 0.0
						CHANNELS 6 Xposition Yposition Zposition Zrotation Xrotation Yrotation 
						End Site
						{
							OFFSET 0.0 0.0 0.0
						}
					}
				}
				JOINT Shoulder_L
				{
					OFFSET 12.9942 -0.242716 4.98039
					CHANNELS 6 Xposition Yposition Zposition Zrotation Xrotation Yrotation 
					JOINT UpperArm_L
					{
						OFFSET 5.34809 0.0 0.0
						CHANNELS 6 Xposition Yposition Zposition Zrotation Xrotation Yrotation 
						JOINT LowerArm_L
						{
							OFFSET 24.3286 1.87007e-05 0.0
							CHANNELS 6 Xposition Yposition Zposition Zrotation Xrotation Yrotation 
							JOINT Hand_L
							{
								OFFSET 22.2916 0.0 0.0
								CHANNELS 6 Xposition Yposition Zposition Zrotation Xrotation Yrotation 
								End Site
								{
									OFFSET 0.0 0.0 0.0
								}
							}
						}
					}
				}
				JOINT Shoulder_R
				{
					OFFSET 12.9945 -0.242716 -4.98039
					CHANNELS 6 Xposition Yposition Zposition Zrotation Xrotation Yrotation 
					JOINT UpperArm_R
					{
						OFFSET -5.34813 0.0 0.0
						CHANNELS 6 Xposition Yposition Zposition Zrotation Xrotation Yrotation 
						JOINT LowerArm_R
						{
							OFFSET -24.3289 0.000322201 0.0
							CHANNELS 6 Xposition Yposition Zposition Zrotation Xrotation Yrotation 
							JOINT Hand_R
							{
								OFFSET -22.2915 -0.000108084 0.0
								CHANNELS 6 Xposition Yposition Zposition Zrotation Xrotation Yrotation 
								End Site
								{
									OFFSET 0.0 0.0 0.0
								}
							}
						}
					}
				}
			}
		}
		JOINT UpperLeg_L
		{
			OFFSET -2.19248 -6.46944 0.0
			CHANNELS 6 Xposition Yposition Zposition Zrotation Xrotation Yrotation 
			JOINT LowerLeg_L
			{
				OFFSET 39.0811 0.0 -1.23785e-05
				CHANNELS 6 Xposition Yposition Zposition Zrotation Xrotation Yrotation 
				JOINT Foot_L
				{
					OFFSET 40.9854 0.0 -1.26872e-05
					CHANNELS 6 Xposition Yposition Zposition Zrotation Xrotation Yrotation 
					JOINT Toes_L
					{
						OFFSET 11.7543 0.0 0.0
						CHANNELS 6 Xposition Yposition Zposition Zrotation Xrotation Yrotation 
						End Site
						{
							OFFSET 0.0 0.0 0.0
						}
					}
				}
			}
		}
		JOINT UpperLeg_R
		{
			OFFSET -2.19251 6.46944 0.0
			CHANNELS 6 Xposition Yposition Zposition Zrotation Xrotation Yrotation 
			JOINT LowerLeg_R
			{
				OFFSET -39.0811 -0.00228153 -0.0401928
				CHANNELS 6 Xposition Yposition Zposition Zrotation Xrotation Yrotation 
				JOINT Foot_R
				{
					OFFSET -40.9854 0.0 0.0
					CHANNELS 6 Xposition Yposition Zposition Zrotation Xrotation Yrotation 
					JOINT Toes_R
					{
						OFFSET -11.7543 0.0 0.0
						CHANNELS 6 Xposition Yposition Zposition Zrotation Xrotation Yrotation 
						End Site
						{
							OFFSET 0.0 0.0 0.0
						}
					}
				}
			}
		}
	}
}
MOTION
Frames:	4
Frame Time:	0.0333333
0.000000 0.000000 0.000000 0.000000 0.000000 -0.000000 -2.274500 92.129000 -2.182750 87.383100 -0.663302 3.157730 15.735700 0.000005 -0.000001 86.793200 84.939700 -85.686200 8.984550 -0.406207 -0.000000 2.345710 -0.618052 2.224420 16.377300 -0.000001 -0.000001 3.957230 -4.456670 1.707430 6.456720 -0.000001 -0.000000 1.090680 -3.603980 -3.444580 12.994200 -0.242716 4.980390 -89.991700 -0.025149 -71.706900 5.348090 -0.000007 -0.000001 -63.050300 47.629500 -16.330800 24.328600 0.000019 0.000005 4.765040 8.371920 -29.790600 22.291600 -0.000001 0.000005 8.289630 5.613350 -12.180700 12.994500 -0.242716 -4.980390 88.006200 5.252730 -69.180000 -5.348130 -0.000001 -0.000004 -65.458800 34.378100 -16.097900 -24.328900 0.000322 -0.000009 2.262990 6.549700 -19.116700 -22.291500 -0.000108 -0.000004 8.400390 5.433260 -4.051300 -2.192480 -6.469440 -0.000000 -168.035000 -14.919900 -2.609120 39.081100 -0.000007 -0.000012 -0.171287 0.455911 20.591500 40.985400 -0.000006 -0.000013 -6.489490 4.204140 -62.894800 11.754300 -0.000000 0.000003 -0.000038 -0.000447 -16.595000 -2.192510 6.469440 -0.000001 175.990000 21.174000 178.753000 -39.081100 -0.002282 -0.040193 -0.035976 0.109511 19.740200 -40.985400 0.000008 0.000006 -1.353550 3.591130 -63.740300 -11.754300 -0.000006 -0.000006 -0.006179 -0.072450 -19.521800
0.000000 0.000000 0.000000 0.000000 0.000000 -0.000000 -2.271490 92.123500 -2.189010 87.375500 -0.621735 3.195660 15.735700 0.000005 -0.000001 86.729800 84.929200 -85.654100 8.984550 -0.406207 -0.000000 2.365950 -0.628747 2.162350 16.377300 -0.000001 -0.000001 3.914660 -4.402560 1.564470 6.456720 -0.000001 -0.000000 1.190320 -3.613390 -3.522740 12.994200 -0.242716 4.980390 -90.022500 0.068055 -71.676300 5.348090 -0.000007 -0.000001 -59.632100 50.731500 -17.841800 24.328600 0.000019 0.000005 5.231670 8.341650 -32.258000 22.291600 -0.000001 0.000005 7.231290 5.630780 -13.419900 12.994500 -0.242716 -4.980390 87.999200 5.276390 -69.199000 -5.348130 -0.000001 -0.000004 -65.021800 33.192800 -16.172700 -24.328900 0.000322 -0.000009 2.253690 6.235510 -19.925800 -22.291500 -0.000108 -0.000004 8.468720 5.428600 -3.890950 -2.192480 -6.469440 -0.000000 -168.025000 -14.885300 -2.610820 39.081100 -0.000007 -0.000012 -0.173133 0.459406 20.649700 40.985400 -0.000006 -0.000013 -6.488780 4.179090 -62.920100 11.754300 -0.000000 0.000003 -0.000037 -0.000437 -16.594600 -2.192510 6.469440 -0.000001 175.968000 21.231700 178.786000 -39.081100 -0.002282 -0.040193 -0.037660 0.114064 19.762600 -40.985400 0.000008 0.000006 -1.396830 3.620710 -63.743900 -11.754300 -0.000006 -0.000006 -0.006120 -0.071924 -19.500400
0.000000 0.000000 0.000000 0.000000 0.000000 -0.000000 -2.262640 92.127300 -2.207400 87.344800 -0.733339 3.264300 15.735700 0.000005 -0.000001 87.013000 84.921300 -85.964100 8.984550 -0.406207 -0.000000 2.383790 -0.578122 2.107750 16.377300 -0.000001 -0.000001 3.830530 -4.291080 1.370690 6.456720 -0.000001 -0.000000 1.426780 -3.588700 -3.714250 12.994200 -0.242716 4.980390 -90.054000 0.162008 -71.559600 5.348090 -0.000007 -0.000001 -54.785600 54.338200 -19.948900 24.328600 0.000019 0.000005 5.351280 7.388020 -36.076000 22.291600 -0.000001 0.000005 6.287840 5.648590 -14.906400 12.994500 -0.242716 -4.980390 87.940800 5.453760 -69.277900 -5.348130 -0.000001 -0.000004 -64.061500 31.152800 -16.334200 -24.328900 0.000322 -0.000009 1.957080 5.002740 -21.412500 -22.291500 -0.000108 -0.000004 8.467340 5.425210 -3.775710 -2.192480 -6.469440 -0.000000 -167.975000 -14.902400 -2.523690 39.081100 -0.000007 -0.000012 -0.172598 0.458053 20.647000 40.985400 -0.000006 -0.000013 -6.492600 4.146480 -62.923800 11.754300 -0.000000 0.000003 -0.000039 -0.000456 -16.595300 -2.192510 6.469440 -0.000001 176.006000 21.179800 178.812000 -39.081100 -0.002282 -0.040193 -0.032480 0.099501 19.789200 -40.985400 0.000008 0.000006 -1.185650 3.613710 -63.750700 -11.754300 -0.000006 -0.000006 -0.006037 -0.071173 -19.469700
0.000000 0.000000 0.000000 0.000000 0.000000 -0.000000 -2.235650 92.116500 -2.213860 87.352900 -1.008650 3.332110 15.735700 0.000005 -0.000001 87.698400 84.914600 -86.685000 8.984550 -0.406207 -0.000000 2.401400 -0.455564 2.034380 16.377300 -0.000001 -0.000001 3.817770 -4.097970 1.159270 6.456720 -0.000001 -0.000000 1.461470 -3.511200 -4.092070 12.994200 -0.242716 4.980390 -90.045000 0.133429 -71.351200 5.348090 -0.000007 -0.000001 -49.366400 57.417400 -22.114700 24.328600 0.000019 0.000005 5.734800 6.577790 -41.237200 22.291600 -0.000001 0.000005 5.435330 5.665600 -16.745500 12.994500 -0.242716 -4.980390 87.918100 5.514700 -69.279900 -5.348130 -0.000001 -0.000004 -62.242400 29.035300 -17.238700 -24.328900 0.000322 -0.000009 1.525120 3.547110 -23.304900 -22.291500 -0.000108 -0.000004 8.791730 5.424490 -3.750710 -2.192480 -6.469440 -0.000000 -167.972000 -15.099200 -2.438020 39.081100 -0.000007 -0.000012 -0.171970 0.453737 20.757300 40.985400 -0.000006 -0.000013 -6.483380 4.033810 -63.006300 11.754300 -0.000000 0.000003 -0.000037 -0.000433 -16.594400 -2.192510 6.469440 -0.000001 175.942000 21.041300 178.834000 -39.081100 -0.002282 -0.040193 -0.034486 0.104820 19.834000 -40.985400 0.000008 0.000006 -1.352720 3.797580 -63.729800 -11.754300 -0.000006 -0.000006 -0.006486 -0.075191 -19.633700
